<?xml version="1.0" encoding="utf-8"?>
<!-- Generator: Adobe Illustrator 21.1.0, SVG Export Plug-In . SVG Version: 6.00 Build 0)  -->
<svg version="1.1" id="Layer_1" xmlns="http://www.w3.org/2000/svg" xmlns:xlink="http://www.w3.org/1999/xlink" x="0px" y="0px"
	 viewBox="0 0 42.5 10" style="enable-background:new 0 0 42.5 10;" xml:space="preserve">
<style type="text/css">
	.st0{fill:#00B5A3;}
	.st1{fill:#06466F;}
</style>
<g>
	<g>
		<g>
			<path class="st0" d="M6,0.6h1.3l3.7,8.7H9.1L8.2,7H5.1l-1,2.2H2.4L6,0.6z M7.6,5.4L6.6,2.8L5.7,5.4H7.6z"/>
			<path class="st0" d="M11.6,2.7h1.4v0.6h0c0.2-0.2,0.4-0.4,0.7-0.6c0.3-0.1,0.6-0.2,0.9-0.2c0,0,0,0,0.1,0c0,0,0,0,0.1,0
				c0,0,0.1,0,0.1,0c0,0,0.1,0,0.1,0c0.3,0,0.6,0.1,0.9,0.2c0.3,0.1,0.5,0.3,0.8,0.6c0,0,0.1,0.1,0.1,0.1c0,0,0.1,0.1,0.1,0.1
				c0.3,0.4,0.4,0.7,0.4,1.1c0,0.4,0.1,0.8,0.1,1.2v3.4h-1.6V6.2c0-0.1,0-0.2,0-0.3c0-0.1,0-0.2,0-0.3c0-0.2,0-0.3-0.1-0.5
				c0-0.2-0.1-0.3-0.2-0.4c-0.1-0.2-0.2-0.3-0.4-0.4c-0.2-0.1-0.4-0.1-0.5-0.2c0,0,0,0,0,0c0,0,0,0,0,0c0,0,0,0-0.1,0s-0.1,0-0.1,0
				c-0.2,0-0.4,0.1-0.5,0.2c-0.2,0.1-0.3,0.2-0.4,0.4c-0.1,0.1-0.1,0.3-0.2,0.4c0,0.2-0.1,0.3-0.1,0.5c0,0.1,0,0.2,0,0.3
				c0,0.1,0,0.2,0,0.3c0,0,0,0,0,0.1c0,0,0,0,0,0.1v2.9h-1.6V2.7z"/>
			<path class="st1" d="M25.3,9.3h-1.4V8.4h0c-0.2,0.4-0.5,0.6-0.9,0.8c-0.4,0.2-0.8,0.3-1.2,0.3c0,0,0,0,0,0c0,0,0,0,0,0
				c-0.5,0-0.9-0.1-1.3-0.3c-0.4-0.2-0.7-0.5-1-0.8c-0.3-0.3-0.5-0.7-0.6-1.1c-0.2-0.4-0.2-0.8-0.2-1.3c0-0.4,0.1-0.9,0.2-1.3
				C18.8,4.3,19,4,19.3,3.6c0.3-0.3,0.6-0.6,1-0.8c0.4-0.2,0.8-0.3,1.2-0.3c0,0,0.1,0,0.1,0c0,0,0.1,0,0.1,0c0,0,0,0,0,0
				c0,0,0,0,0,0c0.4,0,0.7,0.1,1.1,0.2c0.3,0.1,0.6,0.4,0.9,0.6V0.6h1.6V9.3z M23.8,6c0-0.5-0.2-1-0.6-1.4c-0.4-0.4-0.8-0.6-1.4-0.6
				c-0.5,0-0.9,0.2-1.3,0.6C20.2,5,20,5.5,20,6c0,0.5,0.2,1,0.5,1.4C20.9,7.8,21.3,8,21.9,8c0.5,0,1-0.2,1.4-0.6
				C23.6,7,23.8,6.5,23.8,6L23.8,6z"/>
			<path class="st1" d="M33.1,9.3h-1.4V8.4h0c-0.2,0.3-0.5,0.5-0.8,0.7c-0.3,0.2-0.7,0.3-1,0.4c-0.1,0-0.1,0-0.2,0
				c-0.1,0-0.1,0-0.2,0c-0.5,0-1-0.1-1.4-0.3c-0.4-0.2-0.8-0.5-1-0.8c-0.3-0.3-0.5-0.7-0.6-1.1c-0.1-0.4-0.2-0.8-0.2-1.3
				c0-0.5,0.1-0.9,0.2-1.3C26.5,4.4,26.7,4,27,3.7c0.3-0.4,0.7-0.7,1.1-0.9c0.4-0.2,0.8-0.3,1.3-0.3c0.4,0,0.9,0.1,1.2,0.3
				c0.4,0.2,0.7,0.5,1,0.8V2.7h1.4V9.3z M31.6,6c0-0.5-0.2-1-0.5-1.4c-0.3-0.4-0.8-0.6-1.4-0.5c-0.6,0-1,0.2-1.4,0.6
				c-0.4,0.4-0.5,0.9-0.5,1.4c0,0.5,0.2,1,0.6,1.3C28.7,7.8,29.2,8,29.7,8c0.6,0,1-0.2,1.4-0.6S31.6,6.6,31.6,6L31.6,6z"/>
			<path class="st1" d="M34.3,0.6h1.6v5.3l2.1-3.1h1.8l-2.4,3.2l2.7,3.3h-2.1l-2.2-3.1v3.1h-1.6V0.6z"/>
		</g>
	</g>
</g>
</svg>
